# This file uses centimeters as units for non-parametric coordinates.

mtllib Knight_Base.mtl
g default
v -0.000000 -1.285291 -0.000000
v -0.000000 -1.285291 -1.032096
v -0.394966 -1.285291 -0.953532
v -0.751453 -1.295447 -0.748820
v -0.975184 -1.295447 -0.413984
v -1.075546 -1.283927 -0.003646
v -0.953532 -1.285291 0.394966
v -0.729802 -1.285291 0.729802
v -0.394966 -1.285291 0.953532
v -0.000000 -1.285291 1.032096
v 0.394966 -1.285291 0.953532
v 0.729802 -1.285291 0.729802
v 0.953532 -1.285291 0.394966
v 1.032096 -1.285291 -0.000000
v 0.953532 -1.285291 -0.394966
v 0.729802 -1.285291 -0.729802
v 0.394965 -1.285291 -0.953532
v -0.138427 -1.285291 -0.334191
v -0.256539 -1.285291 -0.619341
v -0.000000 -1.285291 -0.670370
v -0.000000 -1.285291 -0.361726
v -0.255779 -1.285291 -0.255779
v -0.474023 -1.285291 -0.474023
v -0.334191 -1.285291 -0.138427
v -0.619341 -1.285291 -0.256539
v -0.361726 -1.285291 0.000000
v -0.670370 -1.285291 0.000000
v -0.334191 -1.285291 0.138427
v -0.619341 -1.285291 0.256539
v -0.255779 -1.285291 0.255779
v -0.474023 -1.285291 0.474023
v -0.138427 -1.285291 0.334191
v -0.256539 -1.285291 0.619341
v -0.000000 -1.285291 0.361726
v -0.000000 -1.285291 0.670370
v 0.138426 -1.285291 0.334191
v 0.256539 -1.285291 0.619341
v 0.255779 -1.285291 0.255779
v 0.474023 -1.285291 0.474023
v 0.334191 -1.285291 0.138427
v 0.619341 -1.285291 0.256539
v 0.361726 -1.285291 -0.000000
v 0.670370 -1.285291 -0.000000
v 0.334191 -1.285291 -0.138427
v 0.619341 -1.285291 -0.256539
v 0.255779 -1.285291 -0.255779
v 0.474023 -1.285291 -0.474023
v 0.138426 -1.285291 -0.334191
v 0.256539 -1.285291 -0.619341
v -0.379821 -1.253444 -0.937964
v -0.702212 -1.253444 -0.722549
v -0.728478 -1.253443 0.719917
v -0.943893 -1.253443 0.397525
v -0.006053 -1.253443 1.024170
v -0.386341 -1.253443 0.948526
v 0.719917 -1.253443 0.728478
v 0.397525 -1.253443 0.943893
v 1.017476 -1.253444 0.003530
v 0.941832 -1.253443 0.383817
v 0.941832 -1.253444 -0.376757
v 0.133748 -1.253444 -0.341641
v 0.285481 -1.239961 -0.670896
v 0.000467 -1.253444 -0.665325
v 0.000467 -1.253444 -0.368152
v 0.246739 -1.253444 -0.266143
v 0.494882 -1.239961 -0.530979
v 0.322238 -1.253444 -0.153152
v 0.596790 -1.253444 -0.266875
v 0.669194 -1.253444 0.003530
v 0.345509 -1.253444 0.136812
v 0.620061 -1.253444 0.250535
v 0.270011 -1.253444 0.249803
v 0.473644 -1.253443 0.482205
v 0.264243 -1.253443 0.622122
v -0.253058 -1.253443 0.626755
v -0.006053 -1.253443 0.675887
v -0.622122 -1.253443 0.264243
v -0.482205 -1.253443 0.473644
v -0.132816 -1.253444 -0.341641
v -0.246539 -1.253444 -0.616193
v -0.455939 -1.253444 -0.476276
v -0.034116 -1.375468 -0.977721
v -0.357242 -1.344919 -0.868247
v -0.682534 -1.385181 -0.723454
v -0.953532 -1.395984 -0.394966
v -1.032096 -1.395984 0.000000
v -0.883543 -1.368458 0.415874
v -0.722336 -1.368458 0.657141
v -0.330693 -1.368458 0.918828
v -0.046099 -1.368458 0.975437
v 0.415873 -1.368458 0.883543
v 0.657140 -1.368458 0.722336
v 0.920473 -1.375708 0.340341
v 0.931551 -1.331572 0.001162
v 0.921784 -1.372820 -0.335105
v 0.729802 -1.395984 -0.729802
v 0.394965 -1.395984 -0.953532
v 0.644826 -1.285291 0.644827
v 0.842506 -1.285291 0.348978
v -0.786436 -1.285291 -0.325753
v -0.851233 -1.285291 0.000000
v -0.394966 -1.285291 -0.997320
v -0.000000 -1.285291 -1.075883
v -0.379821 -1.253444 -0.981752
v 0.000467 -1.253444 -1.057396
vt 0.578001 0.366913
vt 0.413165 0.913542
vt 0.777584 0.872975
vt 0.217131 0.796131
vt 0.069661 0.841050
vt 0.094491 0.978118
vt 0.650638 0.258661
vt 0.716094 0.332207
vt 0.220089 0.802775
vt 0.336922 0.257663
vt 0.751689 0.556429
vt 0.377982 0.425237
vt 0.758963 0.441004
vt 0.775982 0.541847
vt 0.734949 0.337082
vt 0.544812 0.755569
vt 0.583692 0.089642
vt 0.714852 0.143855
vt 0.422629 0.215349
vt 0.765442 0.549658
vt 0.874025 0.632240
vt 0.735167 0.135268
vt 0.874892 0.346189
vt 0.438312 0.222056
vt 0.403144 0.074181
vt 0.044717 0.958612
vt 0.661348 0.734422
vt 0.640906 0.728897
vt 0.920317 0.354504
vt 0.477753 0.749482
vt 0.559590 0.776160
vt 0.677315 0.734070
vt 0.534704 0.636862
vt 0.843721 0.249306
vt 0.883845 0.347110
vt 0.645559 0.243463
vt 0.042362 0.854580
vt 0.399365 0.601289
vt 0.381406 0.727143
vt 0.191836 0.828036
vt 0.153954 0.935517
vt 0.119690 0.843275
vt 0.523102 0.349648
vt 0.591770 0.612930
vt 0.538425 0.623637
vt 0.241372 0.586297
vt 0.083551 0.629764
vt 0.078492 0.501894
vt 0.137920 0.475769
vt 0.220746 0.477221
vt 0.095455 0.249702
vt 0.297444 0.645401
vt 0.859862 0.603207
vt 0.296702 0.660045
vt 0.621740 0.401437
vt 0.735406 0.847044
vt 0.559229 0.210659
vt 0.396167 0.095248
vt 0.046248 0.657016
vt 0.372908 0.036130
vt 0.602322 0.034488
vt 0.883908 0.247491
vt 0.892737 0.765004
vt 0.663236 0.460023
vt 0.669475 0.505874
vt 0.736439 0.645765
vt 0.882870 0.631687
vt 0.188088 0.323446
vt 0.723025 0.641200
vt 0.844454 0.734643
vt 0.736845 0.829917
vt 0.414442 0.381413
vt 0.466536 0.354961
vt 0.855298 0.743663
vt 0.469348 0.772723
vt 0.740068 0.087795
vt 0.147054 0.857354
vt 0.162382 0.881741
vt 0.114955 0.974658
vt 0.220226 0.792987
vt 0.594497 0.966973
vt 0.061646 0.970619
vt 0.026782 0.930093
vt 0.023295 0.909633
vt 0.025702 0.878077
vt 0.435842 0.625244
vt 0.856009 0.383072
vt 0.920317 0.623910
vt 0.758792 0.440945
vt 0.379588 0.738881
vt 0.584179 0.917814
vt 0.661108 0.735016
vt 0.240888 0.604920
vt 0.167535 0.774967
vt 0.143525 0.796749
vt 0.397569 0.962931
vt 0.186878 0.766192
vt 0.111989 0.635887
vt 0.749886 0.453286
vt 0.246873 0.103921
vt 0.095291 0.841050
vt 0.143437 0.957620
vt 0.200941 0.792190
vt 0.839096 0.265785
vt 0.575010 0.075211
vt 0.541787 0.221016
vt 0.252335 0.153384
vt 0.268065 0.156888
vt 0.255813 0.361679
vt 0.155849 0.249913
vt 0.034313 0.471278
vt 0.483437 0.638168
vt 0.765686 0.550042
vt 0.331783 0.277944
vt 0.652377 0.451571
vt 0.653933 0.514140
vt 0.628872 0.572119
vt 0.360500 0.482073
vt 0.506267 0.493910
vt 0.487619 0.626940
vt 0.440837 0.614167
vt 0.399352 0.588567
vt 0.368602 0.540851
vt 0.163334 0.913163
vt 0.195997 0.780078
vt 0.765705 0.425547
vt 0.580449 0.626870
vn 0.000000 1.000000 -0.000000
vn 0.000000 1.000000 -0.000000
vn 0.000000 1.000000 -0.000000
vn 0.000000 1.000000 -0.000000
vn 0.000000 1.000000 -0.000000
vn 0.000000 1.000000 -0.000000
vn 0.000000 1.000000 -0.000000
vn 0.000000 1.000000 -0.000000
vn 0.000000 1.000000 -0.000000
vn 0.000000 1.000000 -0.000000
vn 0.000000 1.000000 -0.000000
vn 0.000000 1.000000 -0.000000
vn 0.000000 1.000000 -0.000000
vn 0.000000 1.000000 -0.000000
vn 0.000000 1.000000 -0.000000
vn 0.000000 1.000000 -0.000000
vn 0.000000 1.000000 -0.000000
vn 0.000000 1.000000 -0.000000
vn 0.000000 1.000000 -0.000000
vn 0.000000 1.000000 -0.000000
vn 0.000000 1.000000 -0.000000
vn 0.000000 1.000000 -0.000000
vn 0.000000 1.000000 -0.000000
vn 0.000000 1.000000 -0.000000
vn 0.000000 1.000000 -0.000000
vn 0.000000 1.000000 -0.000000
vn 0.000000 1.000000 -0.000000
vn 0.000000 1.000000 -0.000000
vn 0.000000 1.000000 -0.000000
vn 0.000000 1.000000 -0.000000
vn 0.000000 1.000000 -0.000000
vn 0.000000 1.000000 -0.000000
vn 0.000000 1.000000 -0.000000
vn 0.000000 1.000000 -0.000000
vn 0.000000 1.000000 -0.000000
vn 0.000000 1.000000 -0.000000
vn 0.000000 1.000000 -0.000000
vn 0.000000 1.000000 -0.000000
vn 0.000000 1.000000 -0.000000
vn 0.000000 1.000000 -0.000000
vn 0.000000 1.000000 -0.000000
vn 0.000000 1.000000 -0.000000
vn 0.000000 1.000000 -0.000000
vn 0.000000 1.000000 -0.000000
vn 0.000000 1.000000 -0.000000
vn -0.019134 0.999591 -0.021234
vn -0.019134 0.999591 -0.021234
vn -0.019134 0.999591 -0.021234
vn -0.019134 0.999591 -0.021234
vn -0.019134 0.999591 -0.021234
vn 0.000000 1.000000 -0.000000
vn 0.000000 1.000000 -0.000000
vn 0.000000 1.000000 -0.000000
vn 0.000000 1.000000 -0.000000
vn 0.000000 1.000000 -0.000000
vn 0.000000 1.000000 -0.000000
vn 0.000000 1.000000 -0.000000
vn 0.000000 1.000000 -0.000000
vn 0.000000 1.000000 -0.000000
vn 0.000000 1.000000 -0.000000
vn 0.000000 1.000000 -0.000000
vn 0.000000 1.000000 -0.000000
vn 0.332352 0.495731 0.802367
vn 0.332352 0.495731 0.802367
vn 0.332352 0.495731 0.802367
vn 0.332352 0.495731 0.802367
vn 0.191482 0.191443 0.962644
vn 0.191482 0.191443 0.962644
vn 0.191482 0.191443 0.962644
vn 0.191482 0.191443 0.962644
vn 0.695058 0.546740 0.466873
vn 0.695058 0.546740 0.466873
vn 0.695058 0.546740 0.466873
vn 0.695058 0.546740 0.466873
vn -0.544036 0.202707 -0.814208
vn -0.544036 0.202707 -0.814208
vn -0.544036 0.202707 -0.814208
vn -0.544036 0.202707 -0.814208
vn 0.000000 1.000000 -0.000000
vn 0.000000 1.000000 -0.000000
vn 0.000000 1.000000 -0.000000
vn 0.000000 1.000000 -0.000000
vn 0.544036 0.202706 0.814208
vn 0.544036 0.202706 0.814208
vn 0.544036 0.202706 0.814208
vn 0.544036 0.202706 0.814208
vn 0.000000 1.000000 -0.000000
vn 0.000000 1.000000 -0.000000
vn 0.000000 1.000000 -0.000000
vn 0.000000 1.000000 -0.000000
vn -0.375953 0.186728 -0.907630
vn -0.375953 0.186728 -0.907630
vn -0.375953 0.186728 -0.907630
vn -0.375953 0.186728 -0.907630
vn 0.002127 0.999998 0.000551
vn 0.002127 0.999998 0.000551
vn 0.002127 0.999998 0.000551
vn 0.002127 0.999998 0.000551
vn 0.002127 0.999998 0.000551
vn -0.519226 0.848373 -0.103281
vn -0.519226 0.848373 -0.103281
vn -0.519226 0.848373 -0.103281
vn -0.519226 0.848373 -0.103281
vn -0.552064 0.112175 0.826222
vn -0.552064 0.112175 0.826222
vn -0.552064 0.112175 0.826222
vn -0.552064 0.112175 0.826222
vn 0.814208 0.202706 -0.544036
vn 0.814208 0.202706 -0.544036
vn 0.814208 0.202706 -0.544036
vn 0.814208 0.202706 -0.544036
vn 0.338679 -0.792704 -0.506869
vn 0.338679 -0.792704 -0.506869
vn 0.338679 -0.792704 -0.506869
vn 0.338679 -0.792704 -0.506869
vn -0.376443 0.179855 0.908814
vn -0.376443 0.179855 0.908814
vn -0.376443 0.179855 0.908814
vn -0.376443 0.179855 0.908814
vn -0.376443 0.179855 0.908814
vn -0.803263 0.258254 -0.536724
vn -0.803263 0.258254 -0.536724
vn -0.803263 0.258254 -0.536724
vn -0.803263 0.258254 -0.536724
vn 0.000000 1.000000 -0.000000
vn 0.000000 1.000000 -0.000000
vn 0.000000 1.000000 -0.000000
vn 0.000000 1.000000 -0.000000
vn -0.191040 0.202710 0.960423
vn -0.191040 0.202710 0.960423
vn -0.191040 0.202710 0.960423
vn -0.191040 0.202710 0.960423
vn 0.538131 -0.248585 0.805370
vn 0.538131 -0.248585 0.805370
vn 0.538131 -0.248585 0.805370
vn 0.538131 -0.248585 0.805370
vn 0.000000 1.000000 -0.000000
vn 0.000000 1.000000 -0.000000
vn 0.000000 1.000000 -0.000000
vn 0.000000 1.000000 -0.000000
vn 0.000000 1.000000 -0.000000
vn 0.000000 1.000000 -0.000000
vn 0.000000 1.000000 -0.000000
vn 0.000000 1.000000 -0.000000
vn 0.000000 1.000000 -0.000000
vn 0.000000 1.000000 -0.000000
vn 0.000000 1.000000 -0.000000
vn 0.000000 1.000000 -0.000000
vn 0.000000 1.000000 -0.000000
vn 0.000000 1.000000 -0.000000
vn 0.000000 1.000000 -0.000000
vn 0.000000 1.000000 -0.000000
vn 0.000000 1.000000 -0.000000
vn 0.000000 1.000000 -0.000000
vn 0.000000 1.000000 -0.000000
vn 0.000000 1.000000 -0.000000
vn 0.000000 1.000000 -0.000000
vn 0.000000 1.000000 -0.000000
vn 0.000000 1.000000 -0.000000
vn 0.000000 1.000000 -0.000000
vn 0.000000 1.000000 -0.000000
vn 0.000000 1.000000 -0.000000
vn 0.000000 1.000000 -0.000000
vn 0.000000 1.000000 -0.000000
vn 0.000000 1.000000 -0.000000
vn 0.000000 1.000000 -0.000000
vn 0.000000 1.000000 -0.000000
vn 0.000000 1.000000 -0.000000
vn 0.000000 1.000000 -0.000000
vn 0.000000 1.000000 -0.000000
vn 0.000000 1.000000 -0.000000
vn 0.000000 1.000000 -0.000000
vn 0.838403 -0.023117 0.544561
vn 0.838403 -0.023117 0.544561
vn 0.838403 -0.023117 0.544561
vn 0.838403 -0.023117 0.544561
vn 0.000000 1.000000 -0.000000
vn 0.000000 1.000000 -0.000000
vn 0.000000 1.000000 -0.000000
vn 0.000000 1.000000 -0.000000
vn 0.000000 1.000000 -0.000000
vn 0.000000 1.000000 -0.000000
vn 0.000000 1.000000 -0.000000
vn -0.000000 1.000000 -0.000000
vn -0.000000 1.000000 -0.000000
vn -0.000000 1.000000 -0.000000
vn -0.000000 1.000000 -0.000000
vn -0.000000 1.000000 -0.000000
vn -0.000000 1.000000 -0.000000
vn -0.000000 1.000000 -0.000000
vn -0.000000 1.000000 -0.000000
vn 0.000000 1.000000 -0.000000
vn 0.000000 1.000000 -0.000000
vn 0.000000 1.000000 -0.000000
vn 0.000000 1.000000 -0.000000
vn 0.000000 1.000000 -0.000000
vn 0.000000 1.000000 -0.000000
vn 0.000000 1.000000 -0.000000
vn 0.000000 1.000000 -0.000000
vn 0.000000 1.000000 -0.000000
vn 0.000000 1.000000 -0.000000
vn 0.000000 1.000000 -0.000000
vn 0.000000 1.000000 -0.000000
vn -0.032891 0.999367 0.013543
vn -0.032891 0.999367 0.013543
vn -0.032891 0.999367 0.013543
vn -0.032891 0.999367 0.013543
vn -0.020905 0.999292 0.031287
vn -0.020905 0.999292 0.031287
vn -0.020905 0.999292 0.031287
vn -0.020905 0.999292 0.031287
vn 0.000075 0.999363 0.035697
vn 0.000075 0.999363 0.035697
vn 0.000075 0.999363 0.035697
vn 0.000075 0.999363 0.035697
vn 0.000000 1.000000 -0.000000
vn 0.000000 1.000000 -0.000000
vn 0.000000 1.000000 -0.000000
vn 0.000000 1.000000 -0.000000
vn -0.000000 1.000000 -0.000000
vn -0.000000 1.000000 -0.000000
vn -0.000000 1.000000 -0.000000
vn -0.000000 1.000000 -0.000000
vn 0.825741 -0.360289 -0.433985
vn 0.825741 -0.360289 -0.433985
vn 0.825741 -0.360289 -0.433985
vn 0.825741 -0.360289 -0.433985
vn 0.694670 0.186726 0.694670
vn 0.694670 0.186726 0.694670
vn 0.694670 0.186726 0.694670
vn 0.694670 0.186726 0.694670
vn 0.901475 0.393941 0.179314
vn 0.901475 0.393941 0.179314
vn 0.901475 0.393941 0.179314
vn 0.901475 0.393941 0.179314
vn -0.342545 -0.068374 -0.937010
vn -0.342545 -0.068374 -0.937010
vn -0.342545 -0.068374 -0.937010
vn -0.342545 -0.068374 -0.937010
vn -0.830205 -0.055122 0.554726
vn -0.830205 -0.055122 0.554726
vn -0.830205 -0.055122 0.554726
vn -0.830205 -0.055122 0.554726
vn 0.887002 0.426730 -0.176436
vn 0.887002 0.426730 -0.176436
vn 0.887002 0.426730 -0.176436
vn 0.887002 0.426730 -0.176436
vn -0.907630 0.186726 -0.375953
vn -0.907630 0.186726 -0.375953
vn -0.907630 0.186726 -0.375953
vn -0.907630 0.186726 -0.375953
vn -0.654626 0.385240 0.650426
vn -0.654626 0.385240 0.650426
vn -0.654626 0.385240 0.650426
vn -0.654626 0.385240 0.650426
vn -0.922290 -0.320481 0.216040
vn -0.922290 -0.320481 0.216040
vn -0.922290 -0.320481 0.216040
vn -0.922290 -0.320481 0.216040
vn -0.389727 0.687144 -0.613144
vn -0.389727 0.687144 -0.613144
vn -0.389727 0.687144 -0.613144
vn -0.389727 0.687144 -0.613144
vn 0.982412 0.186727 0.000000
vn 0.982412 0.186727 0.000000
vn 0.982412 0.186727 0.000000
vn 0.982412 0.186727 0.000000
vn 0.191040 0.202706 -0.960424
vn 0.191040 0.202706 -0.960424
vn 0.191040 0.202706 -0.960424
vn 0.191040 0.202706 -0.960424
vn -0.907630 0.186726 0.375953
vn -0.907630 0.186726 0.375953
vn -0.907630 0.186726 0.375953
vn -0.907630 0.186726 0.375953
vn 0.083813 -0.537576 -0.839039
vn 0.083813 -0.537576 -0.839039
vn 0.083813 -0.537576 -0.839039
vn 0.083813 -0.537576 -0.839039
vn -0.814208 0.202707 0.544036
vn -0.814208 0.202707 0.544036
vn -0.814208 0.202707 0.544036
vn -0.814208 0.202707 0.544036
vn -0.723452 0.133893 0.677267
vn -0.723452 0.133893 0.677267
vn -0.723452 0.133893 0.677267
vn -0.723452 0.133893 0.677267
vn -0.895810 0.244627 0.371057
vn -0.895810 0.244627 0.371057
vn -0.895810 0.244627 0.371057
vn -0.895810 0.244627 0.371057
vn 0.694670 0.186726 -0.694670
vn 0.694670 0.186726 -0.694670
vn 0.694670 0.186726 -0.694670
vn 0.694670 0.186726 -0.694670
vn 0.694670 0.186726 -0.694670
vn -0.191273 0.196837 0.961597
vn -0.191273 0.196837 0.961597
vn -0.191273 0.196837 0.961597
vn -0.191273 0.196837 0.961597
vn -0.214833 -0.668748 -0.711774
vn -0.214833 -0.668748 -0.711774
vn -0.214833 -0.668748 -0.711774
vn -0.214833 -0.668748 -0.711774
vn -0.287106 -0.694069 -0.660180
vn -0.287106 -0.694069 -0.660180
vn -0.287106 -0.694069 -0.660180
vn -0.287106 -0.694069 -0.660180
vn -0.707472 -0.461599 -0.535172
vn -0.707472 -0.461599 -0.535172
vn -0.707472 -0.461599 -0.535172
vn -0.707472 -0.461599 -0.535172
vn -0.425633 0.078856 0.901453
vn -0.425633 0.078856 0.901453
vn -0.425633 0.078856 0.901453
vn -0.841968 -0.452242 0.294223
vn -0.841968 -0.452242 0.294223
vn -0.841968 -0.452242 0.294223
vn -0.841968 -0.452242 0.294223
vn -0.725451 -0.488630 0.484728
vn -0.725451 -0.488630 0.484728
vn -0.725451 -0.488630 0.484728
vn -0.725451 -0.488630 0.484728
vn -0.438853 -0.613217 0.656790
vn -0.438853 -0.613217 0.656790
vn -0.438853 -0.613217 0.656790
vn -0.438853 -0.613217 0.656790
vn -0.170214 -0.488626 0.855729
vn -0.170214 -0.488626 0.855729
vn -0.170214 -0.488626 0.855729
vn -0.170214 -0.488626 0.855729
vn 0.154105 -0.613223 0.774732
vn 0.154105 -0.613223 0.774732
vn 0.154105 -0.613223 0.774732
vn 0.154105 -0.613223 0.774732
vn 0.484727 -0.488629 0.725452
vn 0.484727 -0.488629 0.725452
vn 0.484727 -0.488629 0.725452
vn 0.484727 -0.488629 0.725452
vn -0.353049 -0.385851 0.852335
vn -0.353049 -0.385851 0.852335
vn -0.353049 -0.385851 0.852335
vn 0.705878 -0.706985 0.043687
vn 0.705878 -0.706985 0.043687
vn 0.705878 -0.706985 0.043687
vn 0.705878 -0.706985 0.043687
vn 0.700229 -0.712537 -0.044393
vn 0.700229 -0.712537 -0.044393
vn 0.700229 -0.712537 -0.044393
vn 0.700229 -0.712537 -0.044393
vn 0.838823 -0.276052 -0.469224
vn 0.838823 -0.276052 -0.469224
vn 0.838823 -0.276052 -0.469224
vn 0.838823 -0.276052 -0.469224
vn 0.555570 -0.000000 -0.831470
vn 0.555570 -0.000000 -0.831470
vn 0.555570 -0.000000 -0.831470
vn 0.555570 -0.000000 -0.831470
vn 0.112077 -0.277339 -0.954213
vn 0.112077 -0.277339 -0.954213
vn 0.112077 -0.277339 -0.954213
vn 0.112077 -0.277339 -0.954213
vn 0.006267 -0.999955 0.007060
vn 0.006267 -0.999955 0.007060
vn 0.006267 -0.999955 0.007060
vn 0.006267 -0.999955 0.007060
vn 0.006267 -0.999955 0.007060
vn 0.006267 -0.999955 0.007060
vn 0.006267 -0.999955 0.007060
vn 0.006267 -0.999955 0.007060
vn 0.006267 -0.999955 0.007060
vn 0.006267 -0.999955 0.007060
vn 0.006267 -0.999955 0.007060
vn 0.006267 -0.999955 0.007060
vn 0.006267 -0.999955 0.007060
vn 0.006267 -0.999955 0.007060
vn 0.006267 -0.999955 0.007060
vn 0.006267 -0.999955 0.007060
vn 0.000000 1.000000 -0.000000
vn 0.000000 1.000000 -0.000000
vn 0.000000 1.000000 -0.000000
vn 0.000000 1.000000 -0.000000
vn 0.618450 -0.484809 -0.618450
vn 0.618450 -0.484809 -0.618450
vn 0.618450 -0.484809 -0.618450
vn 0.000000 1.000000 -0.000000
vn 0.000000 1.000000 -0.000000
vn 0.000000 1.000000 -0.000000
vn 0.000000 1.000000 -0.000000
vn 0.376443 -0.179854 -0.908814
vn 0.376443 -0.179854 -0.908814
vn 0.376443 -0.179854 -0.908814
vn 0.376443 -0.179854 -0.908814
vn 0.000000 1.000000 -0.000000
vn 0.000000 1.000000 -0.000000
vn 0.000000 1.000000 -0.000000
vn 0.000000 1.000000 -0.000000
vn 0.016085 -0.026281 -0.999525
vn 0.016085 -0.026281 -0.999525
vn 0.016085 -0.026281 -0.999525
vn -0.169329 0.496651 -0.851273
vn -0.169329 0.496651 -0.851273
vn -0.169329 0.496651 -0.851273
vn -0.169329 0.496651 -0.851273
vn 0.000000 -1.000000 0.000000
vn 0.000000 -1.000000 0.000000
vn 0.000000 -1.000000 0.000000
vn 0.000000 -1.000000 0.000000
vn -0.903082 0.429467 -0.000000
vn -0.903082 0.429467 -0.000000
vn -0.903082 0.429467 -0.000000
vn -0.903082 0.429467 -0.000000
vn 0.000000 1.000000 -0.000000
vn 0.000000 1.000000 -0.000000
vn 0.000000 1.000000 -0.000000
vn 0.000000 1.000000 -0.000000
vn 0.000000 1.000000 -0.000000
vn 0.000000 1.000000 -0.000000
vn 0.000000 1.000000 -0.000000
vn 0.999893 -0.014647 0.000000
vn 0.999893 -0.014647 0.000000
vn 0.999893 -0.014647 0.000000
vn 0.999893 -0.014647 0.000000
vn 0.999893 -0.014647 0.000000
vn 0.999893 -0.014647 0.000000
vn 0.999893 -0.014647 0.000000
s off
g Circle group1
usemtl CircleSG
f 1/119/1 48/120/2 21/121/3
f 1/119/4 18/122/5 22/123/6
f 1/119/7 22/123/8 24/118/9
f 1/119/10 24/118/11 26/12/12
f 1/119/13 26/12/14 28/72/15
f 1/119/16 28/72/17 30/73/18
f 1/119/19 30/73/20 32/43/21
f 1/119/22 32/43/23 34/1/24
f 1/119/25 34/1/26 36/55/27
f 1/119/28 36/55/29 38/115/30
f 1/119/31 38/115/32 40/116/33
f 1/119/34 40/116/35 42/117/36
f 1/119/37 42/117/38 44/44/39
f 1/119/40 44/44/41 46/45/42
f 1/119/43 46/45/44 48/120/45
f 23/46/46 4/47/47 5/48/48 100/49/49 25/50/50
f 49/75/51 17/2/52 2/9/53 20/90/54
f 47/31/55 16/91/56 17/2/57 49/75/58
f 45/92/59 15/56/60 16/91/61 47/31/62
f 44/44/63 45/27/64 68/28/65 67/127/66
f 18/122/67 21/121/68 64/86/69 79/38/70
f 99/53/71 98/87/72 92/29/73 93/88/74
f 39/89/75 37/8/76 74/15/77 73/126/78
f 35/7/79 10/22/80 11/34/81 37/8/82
f 11/34/83 12/35/84 56/23/85 57/104/86
f 31/24/87 8/25/88 9/105/89 33/106/90
f 29/114/91 7/107/92 53/108/93 77/10/94
f 27/109/95 101/68/96 6/110/97 7/107/98 29/114/99
f 101/68/100 100/49/101 85/111/102 86/51/103
f 48/120/104 46/45/105 65/33/106 61/112/107
f 31/24/108 29/114/109 77/10/110 78/19/111
f 47/31/112 49/75/113 62/30/114 66/16/115
f 41/14/116 99/53/117 13/67/118 59/21/119 71/113/120
f 40/116/121 38/115/122 72/64/123 70/65/124
f 43/69/125 45/27/126 44/44/127 42/117/128
f 9/105/129 10/22/130 54/18/131 55/17/132
f 23/46/133 19/52/134 80/54/135 81/93/136
f 37/8/137 39/89/138 38/115/139 36/55/140
f 35/7/141 37/8/142 36/55/143 34/1/144
f 33/106/145 35/7/146 34/1/147 32/43/148
f 31/24/149 33/106/150 32/43/151 30/73/152
f 29/114/153 31/24/154 30/73/155 28/72/156
f 27/109/157 29/114/158 28/72/159 26/12/160
f 25/50/161 27/109/162 26/12/163 24/118/164
f 23/46/165 25/50/166 24/118/167 22/123/168
f 19/52/169 23/46/170 22/123/171 18/122/172
f 39/13/173 41/14/174 71/20/175 73/99/176
f 1/119/177 21/121/178 18/122/179
f 69/66/180 58/70/181 60/71/182 68/32/183
f 71/113/184 59/21/185 58/70/186 69/66/187
f 74/15/188 57/104/189 56/23/190 73/126/191
f 75/57/192 55/17/193 54/18/194 76/36/195
f 77/10/196 53/108/197 52/58/198 78/19/199
f 80/54/200 50/97/201 51/98/202 81/93/203
f 62/30/204 63/39/205 64/86/206 61/112/207
f 66/16/208 62/30/209 61/112/210 65/33/211
f 68/28/212 66/16/213 65/33/214 67/127/215
f 73/99/216 71/20/217 70/65/218 72/64/219
f 63/39/220 80/54/221 79/38/222 64/86/223
f 45/92/224 47/31/225 66/16/226 68/28/227
f 8/25/228 31/24/229 78/19/230 52/58/231
f 13/67/232 14/74/233 58/70/234 59/21/235
f 15/56/236 45/92/237 68/32/238 60/71/239
f 46/45/240 44/44/241 67/127/242 65/33/243
f 14/74/244 15/56/245 60/71/246 58/70/247
f 33/106/248 9/105/249 55/17/250 75/57/251
f 4/47/252 23/46/253 81/93/254 51/98/255
f 45/27/256 43/69/257 69/66/258 68/32/259
f 3/94/260 4/47/261 51/98/262 50/97/263
f 10/22/264 35/7/265 76/36/266 54/18/267
f 35/7/268 33/106/269 75/57/270 76/36/271
f 37/8/272 11/34/273 57/104/274 74/15/275
f 49/75/276 20/90/277 63/39/278 62/30/279
f 7/107/280 8/25/281 52/58/282 53/108/283
f 38/115/284 39/89/285 73/99/286 72/64/287
f 19/52/288 18/122/289 79/38/290 80/54/291
f 12/35/292 98/87/293 39/13/294 73/126/295 56/23/296
f 21/121/297 48/120/298 61/112/299 64/86/300
f 3/94/301 2/9/302 82/40/303 83/95/304
f 4/47/305 3/94/306 83/95/307 84/59/308
f 5/48/309 4/47/310 84/59/311 85/111/312
f 85/111/313 100/49/314 5/48/315
f 7/107/316 6/110/317 86/51/318 87/100/319
f 8/25/320 7/107/321 87/100/322 88/60/323
f 9/105/324 8/25/325 88/60/326 89/61/327
f 10/22/328 9/105/329 89/61/330 90/76/331
f 11/34/332 10/22/333 90/76/334 91/62/335
f 12/35/336 11/34/337 91/62/338 92/29/339
f 93/88/340 13/67/341 99/53/342
f 14/74/343 13/67/344 93/88/345 94/63/346
f 15/56/347 14/74/348 94/63/349 95/3/350
f 16/91/351 15/56/352 95/3/353 96/81/354
f 17/2/355 16/91/356 96/81/357 97/96/358
f 2/9/359 17/2/360 97/96/361 82/40/362
f 83/101/363 82/42/364 97/77/365 96/78/366 95/124/367 94/41/368 93/102/369 92/79/370 91/6/371 90/82/372 89/26/373 88/83/374 87/84/375 86/85/376 85/37/377 84/5/378
f 39/13/379 98/87/380 99/53/381 41/14/382
f 92/29/383 98/87/384 12/35/385
f 43/69/386 42/117/387 40/116/388 41/11/389
f 71/20/390 41/11/391 40/116/392 70/65/393
f 25/50/394 100/49/395 101/68/396 27/109/397
f 86/51/398 6/110/399 101/68/400
f 103/4/401 102/103/402 104/125/403 105/80/404
f 2/9/405 3/94/406 102/103/407 103/4/408
f 3/94/409 50/97/410 104/125/411 102/103/412
f 63/39/413 105/80/414 50/97/415 80/54/416
f 50/97/417 105/80/418 104/125/419
f 20/90/420 2/9/421 105/80/422 63/39/423
f 105/80/424 2/9/425 103/4/426
