# This file uses centimeters as units for non-parametric coordinates.

mtllib sky_sphere.mtl
g default
v 568.301880 0.000000 -351.229523
v 568.301880 -0.000000 351.229523
v -568.301880 -0.000000 351.229523
v -568.301880 0.000000 -351.229523
v 0.000000 -351.229523 568.301880
v 0.000000 351.229523 568.301880
v 0.000000 351.229523 -568.301880
v 0.000000 -351.229523 -568.301880
v -351.229523 -568.301880 0.000020
v 351.229523 -568.301880 0.000020
v 351.229523 568.301880 0.000020
v -351.229523 568.301880 0.000020
v 137.562393 647.680847 0.000019
v -137.563248 647.680176 0.000022
v -137.562393 -647.680847 0.000019
v 137.562469 -647.680847 0.000022
v -131.362198 -481.475128 -435.130463
v -268.926025 -566.493225 -212.548920
v -268.925995 566.493225 -212.548920
v -131.362427 481.475128 -435.130463
v -435.130524 131.362564 -481.474426
v -212.548920 268.925995 -566.493225
v -212.548920 -268.925995 -566.493225
v -435.130463 -131.362473 -481.475128
v -131.362427 481.475128 435.130463
v -268.926025 566.493225 212.548920
v -268.925995 -566.493225 212.548920
v -131.362473 -481.475128 435.130463
v -435.130524 -131.362564 481.474426
v -212.548828 -268.925293 566.493286
v -212.548920 268.926056 566.493225
v -435.130463 131.362564 481.475128
v -481.475128 435.130463 -131.362152
v -566.493225 212.548920 -268.925995
v -566.493225 212.548920 268.925995
v -481.475128 435.130524 131.362305
v -647.680481 0.000198 137.563065
v -647.680481 -0.000194 -137.563065
v -481.475128 -435.130463 131.362473
v -566.493225 -212.548920 268.925995
v -566.493225 -212.548920 -268.925995
v -481.475128 -435.130463 -131.362564
v 268.925995 566.493225 212.548920
v 131.362427 481.475128 435.130463
v 131.362198 -481.475128 435.130463
v 268.925293 -566.493225 212.548920
v 0.000000 137.563049 647.680481
v 0.000044 -137.563049 647.680481
v 435.130463 131.362473 481.475128
v 212.548920 268.925995 566.493225
v 212.548920 -268.925995 566.493225
v 435.130463 -131.362473 481.475250
v 268.925995 -566.493225 -212.548920
v 131.362427 -481.475128 -435.130463
v 131.362167 481.475128 -435.130463
v 268.924988 566.493286 -212.548920
v 212.548920 268.925995 -566.493225
v 435.130463 131.362305 -481.475128
v 0.000000 -137.563049 -647.680481
v 0.000001 137.563049 -647.680481
v 435.130463 -131.362473 -481.475128
v 212.548920 -268.925995 -566.493225
v 481.475128 435.130463 131.362473
v 566.493225 212.548920 268.925995
v 566.493225 212.548920 -268.925995
v 481.475128 435.130463 -131.362473
v 647.680481 0.000013 -137.563049
v 647.680481 -0.000000 137.563049
v 481.475128 -435.130463 -131.362427
v 566.493225 -212.548920 -268.925995
v 566.493225 -212.548920 268.925995
v 481.475128 -435.130463 131.362473
v -0.000559 -617.062622 -235.696426
v -0.000262 617.062622 -235.696426
v -0.000565 617.062622 235.696426
v 0.000562 -617.062622 235.696426
v -381.365417 -381.365417 -381.365417
v -381.365417 381.365417 -381.365417
v -235.696411 -0.000121 -617.062622
v -381.365417 381.365417 381.365417
v -381.365417 -381.365417 381.365417
v -235.696411 0.000138 617.062622
v -617.062622 235.696457 0.000148
v -617.062622 -235.696457 -0.000122
v 381.365417 381.365417 381.365417
v 381.365417 -381.365417 381.365417
v 235.696426 -0.000019 617.062622
v 381.365417 -381.365417 -381.365417
v 381.365417 381.365417 -381.365417
v 235.696426 -0.000064 -617.062622
v 617.062622 235.696426 0.000045
v 617.062622 -235.696426 0.000029
vt 0.181818 0.250000
vt 0.363636 0.250000
vt 0.545455 0.250000
vt 0.727273 0.250000
vt 0.909091 0.250000
vt 0.090909 0.416667
vt 0.272727 0.416667
vt 0.454545 0.416667
vt 0.636364 0.416667
vt 0.818182 0.416667
vt 1.000000 0.416667
vt 0.000000 0.583333
vt 0.181818 0.583333
vt 0.363636 0.583333
vt 0.545455 0.583333
vt 0.727273 0.583333
vt 0.909091 0.583333
vt 0.090909 0.750000
vt 0.272727 0.750000
vt 0.454545 0.750000
vt 0.636364 0.750000
vt 0.818182 0.750000
vt 0.848485 0.361111
vt 0.787879 0.361111
vt 0.878788 0.305556
vt 0.757576 0.305556
vt 0.333333 0.638889
vt 0.393939 0.638889
vt 0.303030 0.694444
vt 0.424242 0.694444
vt 0.484848 0.583333
vt 0.424242 0.583333
vt 0.575758 0.305556
vt 0.696970 0.305556
vt 0.606061 0.361111
vt 0.666667 0.361111
vt 0.515152 0.416667
vt 0.575758 0.416667
vt 0.515152 0.527778
vt 0.484848 0.472222
vt 0.121212 0.361111
vt 0.969697 0.361111
vt 0.151515 0.305556
vt 0.939394 0.305556
vt 0.303030 0.583333
vt 0.242424 0.583333
vt 0.242424 0.472222
vt 0.212121 0.527778
vt 0.151515 0.416667
vt 0.212121 0.416667
vt 0.393939 0.305556
vt 0.515152 0.305556
vt 0.424242 0.361111
vt 0.484848 0.361111
vt 0.303030 0.361111
vt 0.242424 0.361111
vt 0.333333 0.305556
vt 0.212121 0.305556
vt 0.333333 0.416667
vt 0.393939 0.416667
vt 0.333333 0.527778
vt 0.303030 0.472222
vt 0.424242 0.472222
vt 0.393939 0.527778
vt 0.878788 0.416667
vt 0.939394 0.416667
vt 0.151515 0.638889
vt 0.212121 0.638889
vt 0.121212 0.694444
vt 0.242424 0.694444
vt 0.121212 0.472222
vt 0.151515 0.527778
vt 0.030303 0.527778
vt 0.939394 0.527778
vt 0.060606 0.472222
vt 0.969697 0.472222
vt 0.121212 0.583333
vt 0.060606 0.583333
vt 0.606061 0.694444
vt 0.484848 0.694444
vt 0.575758 0.638889
vt 0.515152 0.638889
vt 0.696970 0.416667
vt 0.757576 0.416667
vt 0.666667 0.472222
vt 0.696970 0.527778
vt 0.575758 0.527778
vt 0.606061 0.472222
vt 0.666667 0.583333
vt 0.606061 0.583333
vt 0.848485 0.472222
vt 0.878788 0.527778
vt 0.757576 0.527778
vt 0.787879 0.472222
vt 0.787879 0.583333
vt 0.848485 0.583333
vt 0.787879 0.694444
vt 0.666667 0.694444
vt 0.757576 0.638889
vt 0.696970 0.638889
vt 0.878788 0.638889
vt 0.030303 0.638889
vt 0.848485 0.694444
vt 0.060606 0.694444
vt 0.454545 0.638889
vt 0.727273 0.361111
vt 0.909091 0.361111
vt 0.272727 0.638889
vt 0.454545 0.527778
vt 0.545455 0.361111
vt 0.545455 0.472222
vt 0.181818 0.361111
vt 0.272727 0.527778
vt 0.181818 0.472222
vt 0.363636 0.361111
vt 0.363636 0.472222
vt 0.909091 0.472222
vt 0.090909 0.638889
vt 0.090909 0.527778
vt 0.636364 0.638889
vt 0.727273 0.472222
vt 0.636364 0.527778
vt 0.818182 0.527778
vt 0.818182 0.638889
vn 0.850650 0.000000 0.525732
vn 0.849164 -0.358376 0.387926
vn 0.986052 -0.000000 0.166438
vn 0.850650 0.000000 -0.525732
vn 0.849164 0.358376 -0.387926
vn 0.986052 0.000000 -0.166438
vn 0.627676 -0.221488 -0.746301
vn 0.627676 0.221488 -0.746301
vn 0.849164 -0.358376 -0.387926
vn -0.000001 -0.525732 0.850650
vn 0.358376 -0.387927 0.849164
vn 0.000000 -0.166438 0.986052
vn 0.525732 -0.850650 0.000001
vn 0.746301 -0.627677 0.221489
vn 0.387927 -0.849164 0.358376
vn 0.849164 0.358376 0.387926
vn 0.627676 0.221488 0.746301
vn -0.850650 0.000000 -0.525732
vn -0.849164 -0.358376 -0.387927
vn -0.986052 -0.000000 -0.166438
vn -0.850650 -0.000000 0.525732
vn -0.849164 0.358376 0.387927
vn -0.986052 0.000000 0.166438
vn -0.358376 -0.387926 0.849164
vn -0.849164 -0.358376 0.387927
vn -0.627676 -0.221489 0.746301
vn 0.000000 0.525732 0.850650
vn -0.221488 0.746301 0.627676
vn -0.358376 0.387927 0.849164
vn 0.000000 0.525732 -0.850650
vn -0.000000 0.166438 -0.986052
vn -0.358376 0.387926 -0.849164
vn -0.849164 0.358376 -0.387927
vn -0.627676 0.221488 -0.746301
vn -0.627676 -0.221488 -0.746301
vn -0.221489 -0.746301 0.627676
vn 0.221488 -0.746301 0.627676
vn 0.221488 0.746301 0.627676
vn -0.221488 0.746301 -0.627676
vn 0.221488 0.746301 -0.627676
vn -0.000000 -0.525732 -0.850650
vn 0.221488 -0.746301 -0.627676
vn -0.221488 -0.746301 -0.627676
vn -0.387927 -0.849164 -0.358376
vn -0.166439 -0.986052 0.000000
vn -0.525732 -0.850650 -0.000000
vn 0.166439 -0.986052 -0.000000
vn 0.387926 -0.849164 -0.358376
vn -0.000000 -0.934172 -0.356823
vn 0.387926 0.849164 -0.358376
vn 0.166438 0.986052 0.000000
vn 0.525732 0.850650 -0.000001
vn -0.166439 0.986052 -0.000000
vn -0.387927 0.849164 -0.358376
vn -0.525731 0.850651 -0.000000
vn -0.000000 0.934172 -0.356823
vn -0.387927 0.849164 0.358376
vn 0.387926 0.849164 0.358376
vn -0.000001 0.934172 0.356823
vn -0.387926 -0.849164 0.358376
vn 0.000000 -0.934172 0.356823
vn -0.746301 -0.627676 -0.221488
vn -0.358376 -0.387927 -0.849164
vn -0.577350 -0.577350 -0.577350
vn -0.746301 0.627676 -0.221488
vn -0.577350 0.577350 -0.577350
vn 0.000000 -0.166438 -0.986052
vn -0.356823 0.000000 -0.934172
vn -0.627676 0.221488 0.746301
vn -0.746301 0.627676 0.221488
vn -0.577350 0.577350 0.577350
vn -0.746301 -0.627676 0.221488
vn -0.577350 -0.577350 0.577351
vn -0.000000 0.166438 0.986052
vn -0.356823 -0.000000 0.934172
vn -0.934172 0.356823 -0.000000
vn -0.934172 -0.356823 0.000000
vn 0.358376 0.387927 0.849164
vn 0.746301 0.627676 0.221488
vn 0.577350 0.577350 0.577350
vn 0.627676 -0.221488 0.746301
vn 0.577350 -0.577351 0.577350
vn 0.356822 0.000000 0.934172
vn 0.358376 -0.387927 -0.849164
vn 0.746301 -0.627676 -0.221488
vn 0.577350 -0.577350 -0.577350
vn 0.746301 0.627677 -0.221489
vn 0.358376 0.387927 -0.849164
vn 0.577350 0.577351 -0.577350
vn 0.356823 -0.000000 -0.934172
vn 0.934172 0.356822 0.000000
vn 0.934172 -0.356822 0.000000
s 1
g pSolid1
usemtl initialShadingGroup
f 2/17/1 71/101/2 68/96/3
f 1/16/4 65/93/5 67/95/6
f 1/16/4 61/89/7 58/86/8
f 1/16/4 58/86/8 65/93/5
f 1/16/4 70/100/9 61/89/7
f 5/13/10 51/77/11 48/72/12
f 10/18/13 72/104/14 46/69/15
f 2/17/1 64/92/16 49/74/17
f 4/8/18 41/63/19 38/60/20
f 3/7/21 35/55/22 37/59/23
f 5/13/10 48/72/12 30/48/24
f 3/7/21 40/62/25 29/47/26
f 6/6/27 25/41/28 31/49/29
f 7/9/30 60/88/31 22/38/32
f 4/8/18 34/54/33 21/37/34
f 4/8/18 24/40/35 41/63/19
f 5/13/10 28/46/36 45/68/37
f 6/11/27 44/66/38 25/42/28
f 7/9/30 20/36/39 55/83/40
f 8/15/41 54/82/42 17/31/43
f 18/32/44 15/28/45 9/14/46
f 16/30/47 53/80/48 10/20/13
f 16/30/47 73/105/49 53/80/48
f 15/28/45 73/105/49 16/30/47
f 18/32/44 73/105/49 15/28/45
f 17/31/43 73/105/49 18/32/44
f 73/105/49 54/82/42 53/80/48
f 17/31/43 54/82/42 73/105/49
f 56/84/50 13/24/51 11/10/52
f 14/26/53 19/34/54 12/4/55
f 14/26/53 74/106/56 19/34/54
f 13/24/51 74/106/56 14/26/53
f 56/84/50 74/106/56 13/24/51
f 55/83/40 74/106/56 56/84/50
f 74/106/56 20/36/39 19/34/54
f 55/83/40 20/36/39 74/106/56
f 26/44/57 14/25/53 12/5/55
f 13/23/51 43/65/58 11/10/52
f 13/23/51 75/107/59 43/65/58
f 14/25/53 75/107/59 13/23/51
f 26/44/57 75/107/59 14/25/53
f 25/42/28 75/107/59 26/44/57
f 75/107/59 44/66/38 43/65/58
f 25/42/28 44/66/38 75/107/59
f 46/70/15 16/29/47 10/19/13
f 15/27/45 27/45/60 9/14/46
f 15/27/45 76/108/61 27/45/60
f 16/29/47 76/108/61 15/27/45
f 46/70/15 76/108/61 16/29/47
f 45/68/37 76/108/61 46/70/15
f 76/108/61 28/46/36 27/45/60
f 45/68/37 28/46/36 76/108/61
f 42/64/62 18/32/44 9/14/46
f 17/31/43 23/39/63 8/15/41
f 17/31/43 77/109/64 23/39/63
f 18/32/44 77/109/64 17/31/43
f 42/64/62 77/109/64 18/32/44
f 41/63/19 77/109/64 42/64/62
f 77/109/64 24/40/35 23/39/63
f 41/63/19 24/40/35 77/109/64
f 22/38/32 20/35/39 7/9/30
f 19/33/54 33/52/65 12/3/55
f 19/33/54 78/110/66 33/52/65
f 20/35/39 78/110/66 19/33/54
f 22/38/32 78/110/66 20/35/39
f 21/37/34 78/110/66 22/38/32
f 78/110/66 34/54/33 33/52/65
f 21/37/34 34/54/33 78/110/66
f 21/37/34 24/40/35 4/8/18
f 23/39/63 59/87/67 8/15/41
f 23/39/63 79/111/68 59/87/67
f 24/40/35 79/111/68 23/39/63
f 21/37/34 79/111/68 24/40/35
f 22/38/32 79/111/68 21/37/34
f 79/111/68 60/88/31 59/87/67
f 22/38/32 60/88/31 79/111/68
f 32/50/69 35/56/22 3/7/21
f 36/58/70 26/43/57 12/1/55
f 36/58/70 80/112/71 26/43/57
f 35/56/22 80/112/71 36/58/70
f 32/50/69 80/112/71 35/56/22
f 31/49/29 80/112/71 32/50/69
f 80/112/71 25/41/28 26/43/57
f 31/49/29 25/41/28 80/112/71
f 30/48/24 28/46/36 5/13/10
f 27/45/60 39/61/72 9/14/46
f 27/45/60 81/113/73 39/61/72
f 28/46/36 81/113/73 27/45/60
f 30/48/24 81/113/73 28/46/36
f 29/47/26 81/113/73 30/48/24
f 81/113/73 40/62/25 39/61/72
f 29/47/26 40/62/25 81/113/73
f 29/47/26 32/50/69 3/7/21
f 31/49/29 47/71/74 6/6/27
f 31/49/29 82/114/75 47/71/74
f 32/50/69 82/114/75 31/49/29
f 29/47/26 82/114/75 32/50/69
f 30/48/24 82/114/75 29/47/26
f 82/114/75 48/72/12 47/71/74
f 30/48/24 48/72/12 82/114/75
f 38/60/20 34/53/33 4/8/18
f 33/51/65 36/57/70 12/2/55
f 33/51/65 83/115/76 36/57/70
f 34/53/33 83/115/76 33/51/65
f 38/60/20 83/115/76 34/53/33
f 37/59/23 83/115/76 38/60/20
f 83/115/76 35/55/22 36/57/70
f 37/59/23 35/55/22 83/115/76
f 37/59/23 40/62/25 3/7/21
f 39/61/72 42/64/62 9/14/46
f 39/61/72 84/116/77 42/64/62
f 40/62/25 84/116/77 39/61/72
f 37/59/23 84/116/77 40/62/25
f 38/60/20 84/116/77 37/59/23
f 84/116/77 41/63/19 42/64/62
f 38/60/20 41/63/19 84/116/77
f 50/76/78 44/66/38 6/11/27
f 43/65/58 63/91/79 11/10/52
f 43/65/58 85/117/80 63/91/79
f 44/66/38 85/117/80 43/65/58
f 50/76/78 85/117/80 44/66/38
f 49/74/17 85/117/80 50/76/78
f 85/117/80 64/92/16 63/91/79
f 49/74/17 64/92/16 85/117/80
f 45/67/37 51/77/11 5/13/10
f 52/78/81 71/102/2 2/12/1
f 52/78/81 86/118/82 71/102/2
f 51/77/11 86/118/82 52/78/81
f 45/67/37 86/118/82 51/77/11
f 46/69/15 86/118/82 45/67/37
f 86/118/82 72/104/14 71/102/2
f 46/69/15 72/104/14 86/118/82
f 47/71/74 50/75/78 6/6/27
f 49/73/17 52/78/81 2/12/1
f 49/73/17 87/119/83 52/78/81
f 50/75/78 87/119/83 49/73/17
f 47/71/74 87/119/83 50/75/78
f 48/72/12 87/119/83 47/71/74
f 87/119/83 51/77/11 52/78/81
f 48/72/12 51/77/11 87/119/83
f 62/90/84 54/81/42 8/15/41
f 53/79/48 69/98/85 10/21/13
f 53/79/48 88/120/86 69/98/85
f 54/81/42 88/120/86 53/79/48
f 62/90/84 88/120/86 54/81/42
f 61/89/7 88/120/86 62/90/84
f 88/120/86 70/100/9 69/98/85
f 61/89/7 70/100/9 88/120/86
f 66/94/87 56/84/50 11/10/52
f 55/83/40 57/85/88 7/9/30
f 55/83/40 89/121/89 57/85/88
f 56/84/50 89/121/89 55/83/40
f 66/94/87 89/121/89 56/84/50
f 65/93/5 89/121/89 66/94/87
f 89/121/89 58/86/8 57/85/88
f 65/93/5 58/86/8 89/121/89
f 57/85/88 60/88/31 7/9/30
f 59/87/67 62/90/84 8/15/41
f 59/87/67 90/122/90 62/90/84
f 60/88/31 90/122/90 59/87/67
f 57/85/88 90/122/90 60/88/31
f 58/86/8 90/122/90 57/85/88
f 90/122/90 61/89/7 62/90/84
f 58/86/8 61/89/7 90/122/90
f 68/96/3 64/92/16 2/17/1
f 63/91/79 66/94/87 11/10/52
f 63/91/79 91/123/91 66/94/87
f 64/92/16 91/123/91 63/91/79
f 68/96/3 91/123/91 64/92/16
f 67/95/6 91/123/91 68/96/3
f 91/123/91 65/93/5 66/94/87
f 67/95/6 65/93/5 91/123/91
f 67/95/6 70/99/9 1/16/4
f 69/97/85 72/103/14 10/22/13
f 69/97/85 92/124/92 72/103/14
f 70/99/9 92/124/92 69/97/85
f 67/95/6 92/124/92 70/99/9
f 68/96/3 92/124/92 67/95/6
f 92/124/92 71/101/2 72/103/14
f 68/96/3 71/101/2 92/124/92
